<svg id="Layer_1" data-name="Layer 1" xmlns="http://www.w3.org/2000/svg" viewBox="0 0 600 600"><defs><style>.cls-1{fill:#fff;}</style></defs><path class="cls-1" d="M497.87,102.13V0H306.38V51.06H293.62V0H102.13V102.13H0V293.61H51.06v12.77H0V497.87H102.13V600H293.62V548.93h12.76V600H497.87V497.87H600V306.38H548.94V293.61H600V102.13Zm89.37,178.72H536.17v38.3h51.07v166H485.11V587.23h-166V536.17h-38.3v51.06h-166V485.1H12.76v-166H63.83v-38.3H12.76v-166H114.89V12.76h166V63.83h38.3V12.76h166V114.89H587.24Z"/><polygon class="cls-1" points="63.83 421.27 63.83 434.04 165.96 434.04 165.96 523.4 127.66 523.4 127.66 472.34 25.53 472.34 25.53 382.98 165.96 382.98 165.96 421.27 63.83 421.27"/><rect class="cls-1" x="229.79" y="25.53" width="38.3" height="140.43"/><polygon class="cls-1" points="370.21 25.53 370.21 114.89 319.15 114.89 319.15 165.96 280.85 165.96 280.85 76.59 331.92 76.59 331.92 25.53 370.21 25.53"/><polygon class="cls-1" points="472.34 25.53 472.34 63.83 421.28 63.83 421.28 165.96 331.92 165.96 331.92 127.66 382.98 127.66 382.98 25.53 472.34 25.53"/><polygon class="cls-1" points="574.47 127.66 574.47 217.02 434.04 217.02 434.04 178.72 536.17 178.72 536.17 165.96 434.04 165.96 434.04 76.59 472.34 76.59 472.34 127.66 574.47 127.66"/><rect class="cls-1" x="434.04" y="229.79" width="140.42" height="38.3"/><polygon class="cls-1" points="574.47 331.92 574.47 370.21 485.11 370.21 485.11 319.15 434.04 319.15 434.04 280.85 523.41 280.85 523.41 331.92 574.47 331.92"/><polygon class="cls-1" points="574.47 382.98 574.47 472.34 536.17 472.34 536.17 421.27 434.04 421.27 434.04 331.92 472.34 331.92 472.34 382.98 574.47 382.98"/><rect class="cls-1" x="331.92" y="434.04" width="38.3" height="140.42"/><polygon class="cls-1" points="268.08 434.04 268.08 472.34 217.02 472.34 217.02 574.47 127.66 574.47 127.66 536.17 178.72 536.17 178.72 434.04 268.08 434.04"/><polygon class="cls-1" points="319.15 434.04 319.15 523.4 268.08 523.4 268.08 574.47 229.79 574.47 229.79 485.1 280.85 485.1 280.85 434.04 319.15 434.04"/><polygon class="cls-1" points="523.41 434.04 523.41 472.34 472.34 472.34 472.34 574.47 382.98 574.47 382.98 434.04 421.28 434.04 421.28 536.17 434.04 536.17 434.04 434.04 523.41 434.04"/><rect class="cls-1" x="25.53" y="331.92" width="140.42" height="38.3"/><polygon class="cls-1" points="217.02 25.53 217.02 165.96 178.72 165.96 178.72 63.83 165.96 63.83 165.96 165.96 76.59 165.96 76.59 127.66 127.66 127.66 127.66 25.53 217.02 25.53"/><polygon class="cls-1" points="165.96 178.72 165.96 268.08 127.66 268.08 127.66 217.02 25.53 217.02 25.53 127.66 63.83 127.66 63.83 178.72 165.96 178.72"/><polygon class="cls-1" points="165.96 280.85 165.96 319.15 76.59 319.15 76.59 268.08 25.53 268.08 25.53 229.79 114.89 229.79 114.89 280.85 165.96 280.85"/><path class="cls-1" d="M300,178.73A121.27,121.27,0,1,0,421.27,300,121.26,121.26,0,0,0,300,178.73Zm99.05,178.46a24.67,24.67,0,0,1-31.84,10,24.7,24.7,0,0,1-10,31.84,24.68,24.68,0,0,1-32.59-7.25,24.69,24.69,0,0,1-49.2,0,24.68,24.68,0,0,1-32.59,7.25,24.7,24.7,0,0,1-10-31.84,24.7,24.7,0,0,1-24.61-42.61,24.69,24.69,0,0,1,0-49.2,24.69,24.69,0,0,1,24.61-42.6,24.69,24.69,0,0,1,42.61-24.6,24.69,24.69,0,0,1,49.2,0,24.69,24.69,0,0,1,42.61,24.6,24.69,24.69,0,0,1,24.61,42.6,24.69,24.69,0,0,1,0,49.2A24.73,24.73,0,0,1,399.05,357.19Z"/><circle class="cls-1" cx="300" cy="300" r="16.04"/><path class="cls-1" d="M300,251.78a47.63,47.63,0,0,1,6.58.45c4.9-16,10.74-36.35,10.74-41.9a17.32,17.32,0,1,0-34.64,0c0,5.55,5.84,25.85,10.74,41.9A47.63,47.63,0,0,1,300,251.78Z"/><path class="cls-1" d="M275.89,258.24a47.06,47.06,0,0,1,5.93-2.9C278,239,273,218.49,270.17,213.68a17.32,17.32,0,0,0-30,17.32c2.78,4.82,18,19.47,30.25,30.92A49,49,0,0,1,275.89,258.24Z"/><path class="cls-1" d="M258.24,275.89a49,49,0,0,1,3.68-5.48c-11.45-12.26-26.1-27.47-30.92-30.25a17.32,17.32,0,0,0-17.32,30C218.49,273,239,278,255.34,281.82A47.06,47.06,0,0,1,258.24,275.89Z"/><path class="cls-1" d="M251.78,300a47.63,47.63,0,0,1,.45-6.58c-16-4.9-36.35-10.74-41.9-10.74a17.32,17.32,0,1,0,0,34.64c5.55,0,25.85-5.84,41.9-10.74A47.63,47.63,0,0,1,251.78,300Z"/><path class="cls-1" d="M258.24,324.11a47.06,47.06,0,0,1-2.9-5.93c-16.35,3.78-36.85,8.87-41.66,11.65a17.32,17.32,0,0,0,17.32,30c4.82-2.78,19.47-18,30.92-30.25A49,49,0,0,1,258.24,324.11Z"/><path class="cls-1" d="M275.89,341.76a49,49,0,0,1-5.48-3.68c-12.26,11.45-27.47,26.1-30.25,30.92a17.32,17.32,0,0,0,30,17.32C273,381.51,278,361,281.82,344.66A47.06,47.06,0,0,1,275.89,341.76Z"/><path class="cls-1" d="M300,348.22a47.63,47.63,0,0,1-6.58-.45c-4.9,16.05-10.74,36.35-10.74,41.9a17.32,17.32,0,1,0,34.64,0c0-5.55-5.84-25.85-10.74-41.9A47.63,47.63,0,0,1,300,348.22Z"/><path class="cls-1" d="M324.11,341.76a47.06,47.06,0,0,1-5.93,2.9c3.78,16.35,8.87,36.85,11.65,41.66a17.32,17.32,0,0,0,30-17.32c-2.78-4.82-18-19.47-30.25-30.92A49,49,0,0,1,324.11,341.76Z"/><path class="cls-1" d="M341.76,324.11a49,49,0,0,1-3.68,5.48c11.45,12.26,26.1,27.47,30.92,30.25a17.32,17.32,0,0,0,17.32-30c-4.81-2.78-25.31-7.87-41.66-11.65A47.06,47.06,0,0,1,341.76,324.11Z"/><path class="cls-1" d="M348.22,300a47.63,47.63,0,0,1-.45,6.58c16.05,4.9,36.35,10.74,41.9,10.74a17.32,17.32,0,1,0,0-34.64c-5.55,0-25.85,5.84-41.9,10.74A47.63,47.63,0,0,1,348.22,300Z"/><path class="cls-1" d="M341.76,275.89a47.06,47.06,0,0,1,2.9,5.93C361,278,381.51,273,386.32,270.17a17.32,17.32,0,0,0-17.32-30c-4.82,2.78-19.47,18-30.92,30.25A49,49,0,0,1,341.76,275.89Z"/><path class="cls-1" d="M324.11,258.24a49,49,0,0,1,5.48,3.68c12.26-11.45,27.47-26.1,30.25-30.92a17.32,17.32,0,0,0-30-17.32c-2.78,4.81-7.87,25.31-11.65,41.66A47.06,47.06,0,0,1,324.11,258.24Z"/><path class="cls-1" d="M300,262.56A37.44,37.44,0,1,0,337.44,300,37.44,37.44,0,0,0,300,262.56Zm0,64.26A26.82,26.82,0,1,1,326.82,300,26.82,26.82,0,0,1,300,326.82Z"/></svg>